<?xml version="1.0" encoding="UTF-8" standalone="no"?>
<svg
   xmlns:dc="http://purl.org/dc/elements/1.1/"
   xmlns:cc="http://creativecommons.org/ns#"
   xmlns:rdf="http://www.w3.org/1999/02/22-rdf-syntax-ns#"
   xmlns:svg="http://www.w3.org/2000/svg"
   xmlns="http://www.w3.org/2000/svg"
   xmlns:sodipodi="http://sodipodi.sourceforge.net/DTD/sodipodi-0.dtd"
   xmlns:inkscape="http://www.inkscape.org/namespaces/inkscape"
   width="128mm"
   height="128mm"
   viewBox="0 0 128 128"
   version="1.1"
   id="svg8"
   inkscape:version="1.0.2 (e86c870879, 2021-01-15, custom)"
   sodipodi:docname="ball2.svg">
  <defs
     id="defs2" />
  <sodipodi:namedview
     id="base"
     pagecolor="#ffffff"
     bordercolor="#666666"
     borderopacity="1.0"
     inkscape:pageopacity="0.0"
     inkscape:pageshadow="2"
     inkscape:zoom="0.98994949"
     inkscape:cx="276.5286"
     inkscape:cy="-28.345491"
     inkscape:document-units="mm"
     inkscape:current-layer="layer1"
     inkscape:document-rotation="0"
     showgrid="true"
     inkscape:window-width="1576"
     inkscape:window-height="1041"
     inkscape:window-x="208"
     inkscape:window-y="0"
     inkscape:window-maximized="0">
    <inkscape:grid
       type="xygrid"
       id="grid10" />
  </sodipodi:namedview>
  <metadata
     id="metadata5">
    <rdf:RDF>
      <cc:Work
         rdf:about="">
        <dc:format>image/svg+xml</dc:format>
        <dc:type
           rdf:resource="http://purl.org/dc/dcmitype/StillImage" />
        <dc:title></dc:title>
      </cc:Work>
    </rdf:RDF>
  </metadata>
  <g
     inkscape:label="Vrstva 1"
     inkscape:groupmode="layer"
     id="layer1">
    <ellipse
       style="fill:#ececec;stroke-width:0.276756"
       id="path12"
       cx="63.5"
       cy="63.906281"
       rx="63.5"
       ry="63.687355" />
    <path
       style="fill:#916f6f;stroke-width:0.251067"
       d="M 57.679166,124.35418 C 42.056235,122.65405 27.350315,114.57946 17.643563,102.37183 10.534235,93.430816 5.9498404,82.306128 4.7414978,71.063111 4.4032976,67.916332 4.4031856,61.194461 4.7412808,58.046064 6.9112579,37.838878 19.227237,20.016127 37.356339,10.848023 50.126186,4.3901596 64.509677,2.8839188 78.595134,6.5294925 92.867,10.223313 105.71705,19.777788 113.80302,32.707814 c 1.81524,2.902696 4.5521,8.62734 5.66694,11.853437 5.96833,17.270943 3.88406,36.457626 -5.63455,51.86869 -5.72196,9.264139 -14.477176,17.267849 -24.06077,21.995549 -5.66849,2.79632 -11.41194,4.62444 -17.483916,5.56506 -3.217532,0.49843 -11.482752,0.70412 -14.611558,0.36363 z"
       id="path14" />
    <ellipse
       style="fill:#f9f9f9;stroke-width:0.264583"
       id="path38"
       cx="81.126358"
       cy="22.662836"
       rx="9.260417"
       ry="7.9375" />
    <path
       style="fill:#f9f9f9;stroke-width:1.01015"
       d="m 296.22657,113.74549 c -10.87796,-3.62615 -18.91534,-10.55496 -22.18992,-19.129313 -2.20641,-5.77742 -1.77034,-14.610193 1.00704,-20.397686 2.72728,-5.683094 8.83415,-11.416572 15.47758,-14.531247 5.03579,-2.360952 6.94999,-2.674845 16.31191,-2.674845 9.74851,0 11.08427,0.241802 16.51102,2.988857 11.51817,5.830579 18.75145,17.401044 17.49744,27.989185 -1.19412,10.082521 -8.22053,19.062199 -18.65297,23.838329 -6.65766,3.04798 -19.68358,4.00966 -25.9621,1.91672 z"
       id="path40"
       transform="scale(0.26458333)" />
    <path
       style="fill:#f9f9f9;stroke-width:1.01015"
       d="m 296.22657,113.74549 c -18.69574,-6.2322 -27.60681,-21.281987 -22.12577,-37.367937 2.10385,-6.174461 9.0218,-13.223382 16.34736,-16.656837 5.11806,-2.398814 6.99052,-2.708317 16.38502,-2.708317 9.57194,0 11.1685,0.275916 16.36685,2.828512 7.26587,3.567827 14.23965,11.185412 16.51697,18.04178 4.32266,13.014333 -3.067,27.325469 -17.52833,33.946079 -6.65766,3.04798 -19.68358,4.00966 -25.9621,1.91672 z"
       id="path42"
       transform="scale(0.26458333)" />
    <path
       style="fill:#f9f9f9;stroke-width:1.01015"
       d="m 296.22657,113.74549 c -15.08335,-5.02802 -23.69421,-15.366777 -23.69421,-28.44882 0,-10.857749 6.61701,-20.277883 17.98891,-25.609426 5.03579,-2.360952 6.94999,-2.674845 16.31191,-2.674845 9.57227,0 11.16835,0.275856 16.36711,2.828795 7.26608,3.568135 14.23942,11.185239 16.51671,18.041497 4.36739,13.148989 -2.88615,27.242669 -17.45319,33.911679 -6.7336,3.08275 -19.72262,4.05609 -26.03724,1.95112 z"
       id="path44"
       transform="scale(0.26458333)" />
    <path
       style="fill:#f9f9f9;stroke-width:1.01015"
       d="m 295.34167,113.50853 c -13.95712,-4.472 -22.80931,-15.420899 -22.80931,-28.21186 0,-10.857749 6.61701,-20.277883 17.98891,-25.609426 5.03579,-2.360952 6.94999,-2.674845 16.31191,-2.674845 9.57227,0 11.16835,0.275856 16.36711,2.828795 7.26608,3.568135 14.23942,11.185239 16.51671,18.041497 4.36739,13.148989 -2.88615,27.242669 -17.45319,33.911679 -7.09917,3.25011 -19.63698,4.04841 -26.92214,1.71416 z"
       id="path46"
       transform="scale(0.26458333)" />
    <path
       style="fill:#f9f9f9;stroke-width:1.01015"
       d="m 295.34167,113.50853 c -13.95712,-4.472 -22.80931,-15.420899 -22.80931,-28.21186 0,-10.857749 6.61701,-20.277883 17.98891,-25.609426 5.03579,-2.360952 6.94999,-2.674845 16.31191,-2.674845 9.57227,0 11.16835,0.275856 16.36711,2.828795 7.2554,3.562889 14.23974,11.186198 16.50955,18.019938 4.38994,13.216885 -2.81779,27.236208 -17.44603,33.933238 -7.09917,3.25011 -19.63698,4.04841 -26.92214,1.71416 z"
       id="path48"
       transform="scale(0.26458333)" />
    <path
       style="fill:#f9f9f9;stroke-width:1.01015"
       d="m 297.06499,114.19101 c -14.15731,-3.65596 -24.57132,-15.915351 -24.54495,-28.89434 0.0216,-10.615987 6.14108,-19.587412 17.35858,-25.448325 4.87366,-2.546384 6.30402,-2.790937 16.44948,-2.812418 10.15118,-0.02149 11.60962,0.220993 16.87219,2.805267 7.2554,3.562889 14.23974,11.186198 16.50955,18.019938 4.38994,13.216885 -2.81779,27.236208 -17.44603,33.933238 -5.97724,2.73648 -19.06327,3.98108 -25.19882,2.39664 z"
       id="path50"
       transform="scale(0.26458333)" />
    <path
       style="fill:#f9f9f9;stroke-width:1.01015"
       d="M 297.17651,114.21382 C 282.7082,110.4495 272.49327,98.469412 272.52004,85.29667 c 0.0216,-10.615987 6.14108,-19.587412 17.35858,-25.448325 4.87366,-2.546384 6.30402,-2.790937 16.44948,-2.812418 10.15118,-0.02149 11.60962,0.220993 16.87219,2.805267 7.2554,3.562889 14.23974,11.186198 16.50955,18.019938 4.38994,13.216885 -2.81779,27.236208 -17.44603,33.933238 -5.93936,2.71913 -19.06873,3.98534 -25.0873,2.41945 z"
       id="path52"
       transform="scale(0.26458333)" />
    <path
       style="fill:#f9f9f9;stroke-width:1.01015"
       d="m 294.79125,113.50248 c -8.9015,-3.2478 -16.62367,-9.6341 -19.92769,-16.480385 -2.56911,-5.323458 -3.00256,-15.348058 -0.90151,-20.849583 2.18987,-5.734097 8.92418,-12.666817 15.84423,-16.311037 4.98421,-2.624774 6.28494,-2.849076 16.52182,-2.849076 10.12547,0 11.62295,0.251067 16.87219,2.828795 7.2554,3.562889 14.23974,11.186198 16.50955,18.019938 4.39468,13.231151 -2.81695,27.235828 -17.48228,33.949838 -7.23105,3.31048 -20.71981,4.1421 -27.43631,1.69151 z"
       id="path54"
       transform="scale(0.26458333)" />
  </g>
</svg>
