<?xml version="1.0" encoding="UTF-8" standalone="no"?>
<svg
   xmlns:dc="http://purl.org/dc/elements/1.1/"
   xmlns:cc="http://creativecommons.org/ns#"
   xmlns:rdf="http://www.w3.org/1999/02/22-rdf-syntax-ns#"
   xmlns:svg="http://www.w3.org/2000/svg"
   xmlns="http://www.w3.org/2000/svg"
   xmlns:sodipodi="http://sodipodi.sourceforge.net/DTD/sodipodi-0.dtd"
   xmlns:inkscape="http://www.inkscape.org/namespaces/inkscape"
   width="128mm"
   height="128mm"
   viewBox="0 0 128 128"
   version="1.1"
   id="svg8"
   inkscape:version="1.0.2 (e86c870879, 2021-01-15, custom)"
   sodipodi:docname="ball.svg">
  <defs
     id="defs2" />
  <sodipodi:namedview
     id="base"
     pagecolor="#ffffff"
     bordercolor="#666666"
     borderopacity="1.0"
     inkscape:pageopacity="0.0"
     inkscape:pageshadow="2"
     inkscape:zoom="0.98994949"
     inkscape:cx="276.5286"
     inkscape:cy="416.12163"
     inkscape:document-units="mm"
     inkscape:current-layer="layer1"
     inkscape:document-rotation="0"
     showgrid="true"
     inkscape:window-width="1576"
     inkscape:window-height="1041"
     inkscape:window-x="208"
     inkscape:window-y="0"
     inkscape:window-maximized="0">
    <inkscape:grid
       type="xygrid"
       id="grid10" />
  </sodipodi:namedview>
  <metadata
     id="metadata5">
    <rdf:RDF>
      <cc:Work
         rdf:about="">
        <dc:format>image/svg+xml</dc:format>
        <dc:type
           rdf:resource="http://purl.org/dc/dcmitype/StillImage" />
        <dc:title></dc:title>
      </cc:Work>
    </rdf:RDF>
  </metadata>
  <g
     inkscape:label="Vrstva 1"
     inkscape:groupmode="layer"
     id="layer1">
    <ellipse
       style="fill:#ececec;stroke-width:0.276756"
       id="path12"
       cx="63.5"
       cy="63.906281"
       rx="63.5"
       ry="63.687355" />
    <path
       style="fill:#916f6f;stroke-width:0.251067"
       d="M 57.679166,124.35418 C 42.056235,122.65405 27.350315,114.57946 17.643563,102.37183 10.534235,93.430816 5.9498404,82.306128 4.7414978,71.063111 4.4032976,67.916332 4.4031856,61.194461 4.7412808,58.046064 6.9112579,37.838878 19.227237,20.016127 37.356339,10.848023 50.126186,4.3901596 64.509677,2.8839188 78.595134,6.5294925 92.867,10.223313 105.71705,19.777788 113.80302,32.707814 c 1.81524,2.902696 4.5521,8.62734 5.66694,11.853437 5.96833,17.270943 3.88406,36.457626 -5.63455,51.86869 -5.72196,9.264139 -14.477176,17.267849 -24.06077,21.995549 -5.66849,2.79632 -11.41194,4.62444 -17.483916,5.56506 -3.217532,0.49843 -11.482752,0.70412 -14.611558,0.36363 z"
       id="path14" />
  </g>
</svg>
